<svg id="bell" xmlns="http://www.w3.org/2000/svg" xmlns:xlink="http://www.w3.org/1999/xlink" width="36.586" height="27.833" viewBox="0 0 36.586 27.833">
  <defs>
    <clipPath id="clip-path">
      <rect id="Rectangle_7" data-name="Rectangle 7" width="36.586" height="21.3" transform="translate(0)" fill="#fff" stroke="#707070" stroke-width="1"/>
    </clipPath>
    <clipPath id="clip-path-2">
      <rect id="Rectangle_6" data-name="Rectangle 6" width="15.68" height="6.533" transform="translate(0 0)" fill="#fff" stroke="#707070" stroke-width="1"/>
    </clipPath>
  </defs>
  <g id="Mask_Group_2" data-name="Mask Group 2" clip-path="url(#clip-path)">
    <path id="bell-2" data-name="bell" d="M10.724,21.293H6.288a9.751,9.751,0,0,1-2.639-.128.522.522,0,0,1-.263-.469,12.887,12.887,0,0,1,1.493-2.688A14.462,14.462,0,0,0,6.8,10.317,7.079,7.079,0,0,1,9.1,5.143a8.241,8.241,0,0,1,11.087,0,7.078,7.078,0,0,1,2.3,5.174,14.462,14.462,0,0,0,1.924,7.692A12.9,12.9,0,0,1,25.9,20.7a.522.522,0,0,1-.263.469A9.751,9.751,0,0,1,23,21.293H18.562m-7.838,0,0,1.307a3.92,3.92,0,1,0,7.84,0V21.293m-7.838,0h7.838" transform="translate(3.651 -1.14)" fill="none" stroke="#232121" stroke-linecap="round" stroke-linejoin="round" stroke-width="2.5"/>
  </g>
  <g id="Mask_Group_1" data-name="Mask Group 1" transform="translate(26.133 27.833) rotate(180)" clip-path="url(#clip-path-2)">
    <g id="Ellipse_4" data-name="Ellipse 4" transform="translate(2.764 0.653)" fill="rgba(245,245,245,0)" stroke="#ffc15f" stroke-width="2.5">
      <circle cx="5.227" cy="5.227" r="5.227" stroke="none"/>
      <circle cx="5.227" cy="5.227" r="3.977" fill="none"/>
    </g>
  </g>
  <g id="Ellipse_5" data-name="Ellipse 5" transform="translate(21.898 3.909)" fill="#ffc15f" stroke="#f9f9f9" stroke-width="1">
    <ellipse cx="3.561" cy="3.507" rx="3.561" ry="3.507" stroke="none"/>
    <ellipse cx="3.561" cy="3.507" rx="3.061" ry="3.007" fill="none"/>
  </g>
</svg>
